<?xml version="1.0" standalone="no"?><!DOCTYPE svg PUBLIC "-//W3C//DTD SVG 1.1//EN" "http://www.w3.org/Graphics/SVG/1.1/DTD/svg11.dtd"><svg t="1698934141540" class="icon" viewBox="0 0 1031 1024" version="1.1" xmlns="http://www.w3.org/2000/svg" p-id="20974" xmlns:xlink="http://www.w3.org/1999/xlink" width="201.3671875" height="200"><path d="M846.336 689.664c-212.352 0-341.632-207.424-430.144-349.376-38.4-61.76-82.176-131.776-105.984-131.776-17.408 0-68.224 19.648-164.928 198.912C89.984 509.824 47.744 613.76 47.296 614.784l-38.4-15.616c0.448-1.088 43.52-106.944 99.904-211.2 79.936-148.288 145.792-220.48 201.344-220.8 46.912 0 86.528 63.552 141.312 151.424 97.28 156.032 230.4 369.6 456.96 323.264l4.928-1.536a607.168 607.168 0 0 1 117.888-29.568v41.6a596.544 596.544 0 0 0-105.728 27.776l-6.4 1.92-1.536 0.384a352 352 0 0 1-71.232 7.232z" p-id="20975"></path><path d="M1024 1024H0V0h41.6l2.752 982.144H1024z" p-id="20976"></path></svg>