<?xml version="1.0" standalone="no"?><!DOCTYPE svg PUBLIC "-//W3C//DTD SVG 1.1//EN" "http://www.w3.org/Graphics/SVG/1.1/DTD/svg11.dtd"><svg t="1698909579510" class="icon" viewBox="0 0 1024 1024" version="1.1" xmlns="http://www.w3.org/2000/svg" p-id="5013" xmlns:xlink="http://www.w3.org/1999/xlink" width="200" height="200"><path d="M770.133333 360.533333c-6.4 0-10.666667-4.266667-10.666666-10.666666C759.466667 216.533333 650.666667 106.666667 516.266667 106.666667S273.066667 216.533333 273.066667 349.866667c0 6.4-4.266667 10.666667-10.666667 10.666666s-10.666667-4.266667-10.666667-10.666666C251.733333 204.8 370.133333 85.333333 516.266667 85.333333s264.533333 118.4 264.533333 264.533334c0 6.4-5.333333 10.666667-10.666667 10.666666z" fill="#2c2c2c" p-id="5014"></path><path d="M256 549.333333h-2.133333c-52.266667-9.6-98.133333-38.4-129.066667-82.133333s-42.666667-97.066667-33.066667-149.333333c9.6-52.266667 38.4-98.133333 82.133334-129.066667 43.733333-30.933333 97.066667-42.666667 149.333333-33.066667 5.333333 1.066667 9.6 6.4 8.533333 12.8-1.066667 5.333333-6.4 9.6-12.8 8.533334-46.933333-8.533333-94.933333 2.133333-133.333333 29.866666-39.466667 27.733333-65.066667 68.266667-73.6 115.2-8.533333 46.933333 2.133333 94.933333 29.866667 133.333334 27.733333 39.466667 68.266667 65.066667 115.2 73.6 5.333333 1.066667 9.6 6.4 8.533333 12.8 0 3.2-4.266667 7.466667-9.6 7.466666zM761.6 549.333333c-5.333333 0-9.6-3.2-10.666667-8.533333-1.066667-5.333333 3.2-11.733333 8.533334-12.8 46.933333-8.533333 87.466667-34.133333 115.2-73.6 27.733333-39.466667 37.333333-86.4 29.866666-133.333333-8.533333-46.933333-34.133333-87.466667-73.6-115.2s-86.4-37.333333-133.333333-29.866667c-6.4 1.066667-11.733333-3.2-12.8-8.533333s3.2-11.733333 8.533333-12.8c52.266667-9.6 105.6 2.133333 149.333334 33.066666s73.6 76.8 82.133333 129.066667c9.6 52.266667-2.133333 105.6-33.066667 149.333333s-76.8 73.6-129.066666 82.133334c0 0 0 1.066667-1.066667 1.066666z" fill="#2c2c2c" p-id="5015"></path><path d="M689.066667 935.466667H329.6c-46.933333 0-84.266667-30.933333-84.266667-69.333334v-320c0-6.4 4.266667-10.666667 10.666667-10.666666s10.666667 4.266667 10.666667 10.666666v320c0 26.666667 28.8 48 62.933333 48h359.466667c35.2 0 62.933333-21.333333 62.933333-48v-320c0-6.4 4.266667-10.666667 10.666667-10.666666s10.666667 4.266667 10.666666 10.666666v320c0 38.4-37.333333 69.333333-84.266666 69.333334z" fill="#2c2c2c" p-id="5016"></path><path d="M762.666667 779.733333H256c-6.4 0-10.666667-4.266667-10.666667-10.666666s4.266667-10.666667 10.666667-10.666667h506.666667c6.4 0 10.666667 4.266667 10.666666 10.666667s-4.266667 10.666667-10.666666 10.666666zM509.866667 549.333333c-6.4 0-10.666667-4.266667-10.666667-10.666666V384c0-6.4 4.266667-10.666667 10.666667-10.666667s10.666667 4.266667 10.666666 10.666667v154.666667c0 5.333333-5.333333 10.666667-10.666666 10.666666zM388.266667 556.8h-2.133334c-106.666667-24.533333-99.2-133.333333-99.2-134.4 0-6.4 5.333333-10.666667 11.733334-9.6 5.333333 0 10.666667 5.333333 9.6 11.733333 0 4.266667-5.333333 91.733333 82.133333 112 5.333333 1.066667 9.6 7.466667 8.533333 12.8-1.066667 4.266667-5.333333 7.466667-10.666666 7.466667zM630.4 556.8c-5.333333 0-9.6-3.2-10.666667-8.533333-1.066667-5.333333 2.133333-11.733333 8.533334-12.8 88.533333-20.266667 82.133333-107.733333 82.133333-112 0-6.4 4.266667-10.666667 9.6-11.733334 6.4 0 10.666667 4.266667 11.733333 9.6 0 1.066667 7.466667 109.866667-99.2 134.4-1.066667 1.066667-1.066667 1.066667-2.133333 1.066667z" fill="#2c2c2c" p-id="5017"></path></svg>